<svg width="16" height="16" fill="none" xmlns="http://www.w3.org/2000/svg"><path d="M8 15.11a.938.938 0 01-.619-.233c-.646-.565-1.27-1.096-1.819-1.564l-.003-.003c-1.612-1.373-3.004-2.56-3.972-3.728C.504 8.275 0 7.037 0 5.683 0 4.37.45 3.156 1.27 2.268A4.302 4.302 0 014.47.875c.923 0 1.77.292 2.514.868.375.29.716.646 1.016 1.061.3-.415.64-.77 1.016-1.061A4.024 4.024 0 0111.53.875c1.236 0 2.373.495 3.2 1.393.82.888 1.27 2.1 1.27 3.415 0 1.354-.504 2.592-1.587 3.899-.968 1.168-2.36 2.354-3.972 3.728-.55.47-1.175 1.001-1.823 1.568A.94.94 0 018 15.11zM4.47 1.812c-.971 0-1.863.388-2.512 1.091-.658.715-1.02 1.702-1.02 2.78 0 1.139.422 2.156 1.37 3.3.917 1.107 2.28 2.269 3.86 3.614l.002.002c.552.47 1.178 1.004 1.829 1.573.655-.57 1.281-1.104 1.834-1.575 1.579-1.346 2.942-2.507 3.859-3.613.948-1.145 1.37-2.162 1.37-3.3 0-1.08-.362-2.066-1.02-2.78a3.375 3.375 0 00-2.512-1.092c-.71 0-1.364.226-1.94.672-.514.398-.872.9-1.082 1.252A.587.587 0 018 4.024c-.21 0-.4-.108-.508-.288-.21-.352-.568-.854-1.082-1.252a3.108 3.108 0 00-1.94-.672z" fill="#fff"/></svg> 
