<svg aria-hidden="true" style="position: absolute; width: 0; height: 0; overflow: hidden;" version="1.1" xmlns="http://www.w3.org/2000/svg" xmlns:xlink="http://www.w3.org/1999/xlink">
<defs>
<symbol id="icon-back" viewBox="0 0 32 32">
<path fill="#fff" style="fill: var(--color1, #fff)" d="M0 16c0 8.837 7.163 16 16 16s16-7.163 16-16c0-8.837-7.163-16-16-16s-16 7.163-16 16z"></path>
<path fill="#000" style="fill: var(--color2, #000)" d="M18.729 12.861l-1.129-1.127-4.8 4.8 4.8 4.8 1.129-1.129-3.664-3.671 3.664-3.673z"></path>
</symbol>
<symbol id="icon-forward" viewBox="0 0 32 32">
<path fill="#fff" style="fill: var(--color1, #fff)" d="M32 16c0 8.837-7.163 16-16 16s-16-7.163-16-16c0-8.837 7.163-16 16-16s16 7.163 16 16z"></path>
<path fill="#000" style="fill: var(--color2, #000)" d="M12.8 12.861l1.129-1.127 4.8 4.8-4.8 4.8-1.129-1.129 3.664-3.671-3.664-3.673z"></path>
</symbol>
<symbol id="icon-add" viewBox="0 0 32 32">
<path fill="#ff6b09" style="fill: var(--color3, #ff6b09)" d="M32 16c0 8.837-7.163 16-16 16s-16-7.163-16-16c0-8.837 7.163-16 16-16s16 7.163 16 16z"></path>
<path fill="none" stroke="#fff" style="stroke: var(--color1, #fff)" stroke-linejoin="miter" stroke-linecap="butt" stroke-miterlimit="4" stroke-width="1.28" d="M16 11.52v8.96M11.52 16h8.96"></path>
</symbol>
<symbol id="icon-close" viewBox="0 0 32 32">
<path d="M25.333 8.547l-1.88-1.88-7.453 7.453-7.453-7.453-1.88 1.88 7.453 7.453-7.453 7.453 1.88 1.88 7.453-7.453 7.453 7.453 1.88-1.88-7.453-7.453 7.453-7.453z"></path>
</symbol>
<symbol id="icon-logout" viewBox="0 0 32 32">
<path d="M3.235 21.654v7.11h25.53v-25.53h-25.53v7.112h-2.915v-6.792c0-1.787 1.448-3.235 3.235-3.235h24.89c1.787 0 3.235 1.448 3.235 3.235v24.89c0 1.787-1.448 3.235-3.235 3.235v0h-24.89c-1.787 0-3.235-1.448-3.235-3.235v0-6.79h2.915zM17.963 14.542l-4.915-4.915 2.064-2.064 8.434 8.437-8.437 8.437-2.062-2.064 4.915-4.915h-17.642v-2.914h17.643z"></path>
</symbol>
<symbol id="icon-menu" viewBox="0 0 32 32">
<path d="M4 24h24v-2.667h-24v2.667zM4 17.333h24v-2.666h-24v2.666zM4 8v2.667h24v-2.667h-24z"></path>
</symbol>
<symbol id="icon-user" viewBox="0 0 32 32">
<path d="M29.474 32h-3.242c0-5.47-4.589-9.918-10.232-9.918s-10.23 4.45-10.23 9.92h-3.242c0-7.261 6.045-13.163 13.472-13.163 7.429 0 13.474 5.902 13.474 13.162zM16 17.786c-4.907-0.008-8.883-3.985-8.89-8.892v-0.001c0.005-4.909 3.982-8.887 8.891-8.893h0c4.91 0.005 8.889 3.983 8.894 8.892v0.001c-0.005 4.91-3.985 8.889-8.896 8.893h-0zM16 3.242c-3.119 0.005-5.645 2.532-5.648 5.651v0c0.004 3.118 2.53 5.645 5.648 5.65h0c3.12-0.002 5.649-2.53 5.653-5.649v-0c-0.005-3.119-2.532-5.646-5.651-5.65h-0z"></path>
</symbol>
<symbol id="icon-favorite-heart" viewBox="0 0 32 32">
<path fill="#ff6b09" style="fill: var(--color3, #ff6b09)" d="M16 30.72l-2.24-2.24c-8.32-7.36-13.76-12.32-13.76-18.4 0-4.96 3.84-8.8 8.8-8.8 2.72 0 5.44 1.28 7.2 3.36 1.76-2.080 4.48-3.36 7.2-3.36 4.96 0 8.8 3.84 8.8 8.8 0 6.080-5.44 11.040-13.76 18.4l-2.24 2.24z"></path>
</symbol>
<symbol id="icon-reset" viewBox="0 0 32 32">
<path d="M6.667 16h-5.333l6.667 6.667 6.667-6.667h-5.333c0-4.413 3.587-8 8-8s8 3.587 8 8-3.587 8-8 8v2.667c5.893 0 10.667-4.773 10.667-10.667s-4.773-10.667-10.667-10.667-10.667 4.773-10.667 10.667z"></path>
</symbol>
<symbol id="icon-search" viewBox="0 0 32 32">
<path d="M20.667 18.667h-1.053l-0.373-0.36c1.301-1.502 2.093-3.475 2.093-5.634 0-0.002 0-0.004 0-0.006v0c0-4.786-3.88-8.667-8.667-8.667s-8.667 3.88-8.667 8.667c0 4.786 3.88 8.667 8.667 8.667v0c2.147 0 4.12-0.787 5.64-2.093l0.36 0.373v1.053l6.667 6.653 1.987-1.987-6.653-6.667zM12.667 18.667c-3.32 0-6-2.68-6-6s2.68-6 6-6 6 2.68 6 6-2.68 6-6 6z"></path>
</symbol>
</defs>
</svg>
